# xmcd CD database file
#
# Track frame offsets:
#	150
#	21727
#	42762
#	60702
#	74077
#	92182
#	108197
#	133687
#	138790
#	142437
#	145647
#	149785
#	173527
#	186217
#	204480
#	226222
#	248412
#
# Disc length: 3556 seconds
#
# Revision: 10
# Processed by: cddbd v1.5.1PL0 Copyright (c) Steve Scherf et al.
# Submitted via: CDex 1.51
#
DISCID=050de211
DTITLE=フジ子・ヘミング - 憂愁のノクターン
DYEAR=2000
DGENRE=Classical
TTITLE0=ノクターン 第1番 変ロ短調 作品9の1(ショパン)
TTITLE1=月の光(「ベルガマスク組曲」より)(ドビュッシー)
TTITLE2=ノクターン 第20番 嬰ハ短調 遺作(ショパン)
TTITLE3=エチュード ハ短調「革命」作品10の12(ショパン)
TTITLE4=エチュード イ短調「木枯し」作品25の11(ショパン)
TTITLE5=いずこへ(シューベルト 歌曲トランスクリプション S.565-5)(リスト)
TTITLE6=ラ・カンパネラ(パガニーニによる大練習曲 S.141-3)(リスト)
TTITLE7=プレリュード ト長調 作品28の3(ショパン)
TTITLE8=プレリュード イ長調 作品28の7(ショパン)
TTITLE9=プレリュード ロ長調 作品28の11(ショパン)
TTITLE10=プレリュード ヘ長調 作品28の23(ショパン)
TTITLE11=即興曲 変ト長調 作品90-3(D.899-3)(シューベルト)
TTITLE12=ハンガリー舞曲 第5番 嬰ヘ短調(ブラームス)
TTITLE13=乙女の願い(ショパン 歌曲 トランスクリプション S.480-1)(リスト)
TTITLE14=パゴダ(塔)「版画」(ドビュッシー)
TTITLE15=グラナダの夕べ「版画」(ドビュッシー)
TTITLE16=雨の庭「版画」(ドビュッシー)
EXTD=YEAR: 2000
EXTT0=
EXTT1=
EXTT2=
EXTT3=
EXTT4=
EXTT5=
EXTT6=
EXTT7=
EXTT8=
EXTT9=
EXTT10=
EXTT11=
EXTT12=
EXTT13=
EXTT14=
EXTT15=
EXTT16=
PLAYORDER=
